<svg width="50" height="16" viewBox="0 0 50 16" fill="none" xmlns="http://www.w3.org/2000/svg">
<path d="M9.27344 13.4668V15H2.16406V13.4668H9.27344ZM2.53516 0.78125V15H0.650391V0.78125H2.53516ZM21.7344 7.44141V8.33984C21.7344 9.40755 21.6009 10.3646 21.334 11.2109C21.0671 12.0573 20.6829 12.7767 20.1816 13.3691C19.6803 13.9616 19.0781 14.4141 18.375 14.7266C17.6784 15.0391 16.8971 15.1953 16.0312 15.1953C15.1914 15.1953 14.4199 15.0391 13.7168 14.7266C13.0202 14.4141 12.4147 13.9616 11.9004 13.3691C11.3926 12.7767 10.9987 12.0573 10.7188 11.2109C10.4388 10.3646 10.2988 9.40755 10.2988 8.33984V7.44141C10.2988 6.3737 10.4355 5.41992 10.709 4.58008C10.9889 3.73372 11.3828 3.01432 11.8906 2.42188C12.3984 1.82292 13.0007 1.36719 13.6973 1.05469C14.4004 0.742188 15.1719 0.585938 16.0117 0.585938C16.8776 0.585938 17.6589 0.742188 18.3555 1.05469C19.0586 1.36719 19.6608 1.82292 20.1621 2.42188C20.6699 3.01432 21.0573 3.73372 21.3242 4.58008C21.5977 5.41992 21.7344 6.3737 21.7344 7.44141ZM19.8691 8.33984V7.42188C19.8691 6.57552 19.7812 5.82682 19.6055 5.17578C19.4362 4.52474 19.1855 3.97786 18.8535 3.53516C18.5215 3.09245 18.1146 2.75716 17.6328 2.5293C17.1576 2.30143 16.6172 2.1875 16.0117 2.1875C15.4258 2.1875 14.8952 2.30143 14.4199 2.5293C13.9512 2.75716 13.5475 3.09245 13.209 3.53516C12.877 3.97786 12.6198 4.52474 12.4375 5.17578C12.2552 5.82682 12.1641 6.57552 12.1641 7.42188V8.33984C12.1641 9.19271 12.2552 9.94792 12.4375 10.6055C12.6198 11.2565 12.8802 11.8066 13.2188 12.2559C13.5638 12.6986 13.9707 13.0339 14.4395 13.2617C14.9147 13.4896 15.4453 13.6035 16.0312 13.6035C16.6432 13.6035 17.1868 13.4896 17.6621 13.2617C18.1374 13.0339 18.5378 12.6986 18.8633 12.2559C19.1953 11.8066 19.446 11.2565 19.6152 10.6055C19.7845 9.94792 19.8691 9.19271 19.8691 8.33984ZM35.0645 7.91992V13.125C34.8887 13.3854 34.6087 13.6784 34.2246 14.0039C33.8405 14.3229 33.3099 14.6029 32.6328 14.8438C31.9622 15.0781 31.0964 15.1953 30.0352 15.1953C29.1693 15.1953 28.3717 15.0456 27.6426 14.7461C26.9199 14.4401 26.2917 13.9974 25.7578 13.418C25.2305 12.832 24.8203 12.1224 24.5273 11.2891C24.2409 10.4492 24.0977 9.4987 24.0977 8.4375V7.33398C24.0977 6.27279 24.2214 5.32552 24.4688 4.49219C24.7227 3.65885 25.0938 2.95247 25.582 2.37305C26.0703 1.78711 26.6693 1.3444 27.3789 1.04492C28.0885 0.738932 28.9023 0.585938 29.8203 0.585938C30.9076 0.585938 31.8158 0.77474 32.5449 1.15234C33.2806 1.52344 33.8535 2.03776 34.2637 2.69531C34.6803 3.35286 34.9473 4.10156 35.0645 4.94141H33.1797C33.0951 4.42708 32.9258 3.95833 32.6719 3.53516C32.4245 3.11198 32.0697 2.77344 31.6074 2.51953C31.1452 2.25911 30.5495 2.12891 29.8203 2.12891C29.1628 2.12891 28.5931 2.24935 28.1113 2.49023C27.6296 2.73112 27.2324 3.07617 26.9199 3.52539C26.6074 3.97461 26.373 4.51823 26.2168 5.15625C26.0671 5.79427 25.9922 6.51367 25.9922 7.31445V8.4375C25.9922 9.25781 26.0866 9.99023 26.2754 10.6348C26.4707 11.2793 26.7474 11.8294 27.1055 12.2852C27.4635 12.7344 27.89 13.0762 28.3848 13.3105C28.8861 13.5449 29.4395 13.6621 30.0449 13.6621C30.7155 13.6621 31.2591 13.6068 31.6758 13.4961C32.0924 13.3789 32.418 13.2422 32.6523 13.0859C32.8867 12.9232 33.0658 12.7702 33.1895 12.627V9.44336H29.8984V7.91992H35.0645ZM49.1367 7.44141V8.33984C49.1367 9.40755 49.0033 10.3646 48.7363 11.2109C48.4694 12.0573 48.0853 12.7767 47.584 13.3691C47.0827 13.9616 46.4805 14.4141 45.7773 14.7266C45.0807 15.0391 44.2995 15.1953 43.4336 15.1953C42.5938 15.1953 41.8223 15.0391 41.1191 14.7266C40.4225 14.4141 39.8171 13.9616 39.3027 13.3691C38.7949 12.7767 38.401 12.0573 38.1211 11.2109C37.8411 10.3646 37.7012 9.40755 37.7012 8.33984V7.44141C37.7012 6.3737 37.8379 5.41992 38.1113 4.58008C38.3913 3.73372 38.7852 3.01432 39.293 2.42188C39.8008 1.82292 40.403 1.36719 41.0996 1.05469C41.8027 0.742188 42.5742 0.585938 43.4141 0.585938C44.2799 0.585938 45.0612 0.742188 45.7578 1.05469C46.4609 1.36719 47.0632 1.82292 47.5645 2.42188C48.0723 3.01432 48.4596 3.73372 48.7266 4.58008C49 5.41992 49.1367 6.3737 49.1367 7.44141ZM47.2715 8.33984V7.42188C47.2715 6.57552 47.1836 5.82682 47.0078 5.17578C46.8385 4.52474 46.5879 3.97786 46.2559 3.53516C45.9238 3.09245 45.5169 2.75716 45.0352 2.5293C44.5599 2.30143 44.0195 2.1875 43.4141 2.1875C42.8281 2.1875 42.2975 2.30143 41.8223 2.5293C41.3535 2.75716 40.9499 3.09245 40.6113 3.53516C40.2793 3.97786 40.0221 4.52474 39.8398 5.17578C39.6576 5.82682 39.5664 6.57552 39.5664 7.42188V8.33984C39.5664 9.19271 39.6576 9.94792 39.8398 10.6055C40.0221 11.2565 40.2826 11.8066 40.6211 12.2559C40.9661 12.6986 41.373 13.0339 41.8418 13.2617C42.3171 13.4896 42.8477 13.6035 43.4336 13.6035C44.0456 13.6035 44.5892 13.4896 45.0645 13.2617C45.5397 13.0339 45.9401 12.6986 46.2656 12.2559C46.5977 11.8066 46.8483 11.2565 47.0176 10.6055C47.1868 9.94792 47.2715 9.19271 47.2715 8.33984Z" fill="#393939"/>
</svg>
